<svg width="767" height="165" viewBox="0 0 767 165" fill="none" xmlns="http://www.w3.org/2000/svg">
<g clip-path="url(#clip0_135_1018)">
<rect width="767" height="165" fill="white"/>
<path d="M133.623 91.3555L131.83 123.508C131.83 123.508 173.404 165.495 220.566 146.174C267.728 126.853 269.159 99.8337 269.159 99.8337L250.784 71.5183L133.623 91.3555Z" fill="#370F3E"/>
<path d="M220.566 146.174C226.384 143.788 231.5 141.301 236 138.748C221.402 137.697 206.604 141.42 192.185 138.898C184.239 137.52 176.767 134.303 169.423 131.092C159.076 126.584 143.704 118.652 131.878 122.699L131.83 123.508C131.83 123.508 173.404 165.495 220.566 146.174Z" fill="#4A1C52"/>
<path d="M301.817 54.2597L183.677 21.2346L79.4369 81.5837L71.3214 79.0945L69.7228 87.2175L200.351 127.216L309.429 56.3897L311.024 48.2846L301.817 54.2597Z" fill="#370F3E"/>
<path d="M185.272 13.1295L71.3211 79.0945L201.945 119.111L311.024 48.2846L185.272 13.1295Z" fill="#4A1C52"/>
<path d="M275.087 146.069C276.195 145.989 277.247 146.568 278.156 147.212C279.669 148.271 281.011 149.539 282.349 150.825C284.298 152.676 286.233 154.507 288.182 156.358C288.478 156.64 288.774 156.921 288.939 157.307C289.63 158.874 287.485 161.685 286.137 162.331C283.849 163.423 282.797 161.246 281.842 159.516C281.134 158.224 275.739 146.048 275.08 146.105L275.087 146.069Z" fill="#FFF696"/>
<path d="M273.539 156.098C274.484 159.759 275.338 164.071 277.881 166.858C279.541 168.671 282.31 169.272 284.54 167.908C285.404 167.372 285.95 166.476 286.636 165.719C287.602 164.664 288.908 163.861 290.292 163.502C292.499 162.914 293.89 163.652 294.754 161.239C295.61 158.861 296.291 157.378 298.695 155.974C301.035 154.614 303.611 153.467 304.62 150.784C305.775 147.741 305.969 144.118 306.504 140.933C306.602 140.432 306.669 139.906 306.543 139.417C306.119 137.717 303.112 135.88 301.608 135.342C297.577 133.917 293.055 132.916 288.829 132.102C285.657 131.478 281.605 130.439 278.362 130.842C272.707 131.55 271.278 137.216 271.392 142.089C271.495 146.551 272.153 151.011 273.306 155.308C273.385 155.565 273.443 155.837 273.522 156.094L273.539 156.098Z" fill="#FCA261"/>
<path d="M275.376 120.906C269.397 110.195 277.505 98.4282 274.426 86.6155C272.27 78.2926 267.033 71.3334 259.736 66.8494C241.845 55.8203 214.607 48.3784 193.814 52.761C190.182 53.5332 191.11 58.9753 194.292 59.6387C214.966 63.949 242.908 62.6457 258.831 79.2533C273.097 94.1224 253.508 112.978 268.548 126.922C272.556 130.628 277.811 125.269 275.376 120.906Z" fill="#FCA261"/>
<path d="M284.742 123.158C282.891 120.619 280.355 118.745 277.201 118.124C274.226 117.539 270.851 118.231 268.316 119.925C265.905 121.551 263.739 124.563 263.29 127.504C262.841 130.538 263.204 133.862 265.069 136.422C266.92 138.961 269.456 140.835 272.61 141.456C275.585 142.041 278.96 141.349 281.496 139.655C283.907 138.029 286.073 135.017 286.522 132.076C286.971 129.042 286.607 125.718 284.742 123.158Z" fill="#FCA261"/>
<path d="M284.741 123.158C283.209 121.072 281.232 119.457 278.829 118.593C279.354 119.124 279.85 119.705 280.304 120.315C282.173 122.857 282.536 126.181 282.084 129.233C281.638 132.156 279.469 135.186 277.058 136.811C274.54 138.509 271.147 139.198 268.172 138.612C267.602 138.5 267.06 138.338 266.543 138.143C268.199 139.789 270.222 140.986 272.591 141.452C275.566 142.037 278.941 141.345 281.477 139.651C283.888 138.025 286.054 135.013 286.503 132.072C286.952 129.038 286.588 125.714 284.723 123.154L284.741 123.158Z" fill="#E0823E"/>
<path d="M298.699 155.956C301.04 154.596 303.616 153.449 304.625 150.767C305.779 147.723 305.974 144.1 306.508 140.915C306.606 140.414 306.673 139.889 306.547 139.399C306.457 139.01 306.207 138.589 305.875 138.207C303.702 137.966 301.41 140.488 300.456 142.326C298.796 145.494 297.758 149.174 294.999 151.437C293.385 152.773 291.364 153.454 289.496 154.387C287.628 155.32 285.779 156.629 285.078 158.591C284.785 159.425 284.698 160.338 284.404 161.172C283.622 163.36 281.456 164.68 279.532 165.993C279.041 166.324 278.561 166.694 278.113 167.089C279.791 168.72 282.395 169.214 284.522 167.904C285.387 167.368 285.933 166.472 286.619 165.715C287.585 164.66 288.89 163.858 290.275 163.498C292.482 162.91 293.873 163.649 294.736 161.235C295.593 158.858 296.273 157.375 298.678 155.971L298.699 155.956Z" fill="#E0823E"/>
<path d="M-104.377 63.3555L-106.17 95.5076C-106.17 95.5076 -64.5962 137.495 -17.4342 118.174C29.7279 98.8534 31.159 71.8337 31.159 71.8337L12.7845 43.5183L-104.377 63.3555Z" fill="#370F3E"/>
<path d="M63.8165 26.2597L-54.3227 -6.76538L-158.563 53.5837L-166.679 51.0945L-168.277 59.2175L-37.6493 99.2165L71.429 28.3897L73.024 20.2846L63.8165 26.2597Z" fill="#370F3E"/>
<path d="M-52.728 -14.8705L-166.679 51.0945L-36.0545 91.1114L73.0237 20.2846L-52.728 -14.8705Z" fill="#4A1C52"/>
<path d="M37.0872 118.069C38.1947 117.989 39.2467 118.568 40.1564 119.212C41.6689 120.271 43.0109 121.539 44.3495 122.825C46.2983 124.676 48.2329 126.507 50.1817 128.358C50.478 128.64 50.7742 128.921 50.9389 129.307C51.6299 130.874 49.485 133.685 48.1366 134.331C45.849 135.423 44.7969 133.246 43.8421 131.516C43.1339 130.224 37.739 118.048 37.0802 118.105L37.0872 118.069Z" fill="#FFF696"/>
<path d="M35.5395 128.098C36.4845 131.759 37.3384 136.071 39.8806 138.858C41.5408 140.671 44.3096 141.272 46.5396 139.908C47.4039 139.372 47.9504 138.476 48.636 137.719C49.6024 136.664 50.9077 135.861 52.2924 135.502C54.4992 134.914 55.8899 135.652 56.7535 133.239C57.61 130.861 58.2905 129.378 60.695 127.974C63.0355 126.614 65.6115 125.467 66.6205 122.784C67.7747 119.741 67.9695 116.118 68.5036 112.933C68.6022 112.432 68.6687 111.906 68.5429 111.417C68.1188 109.717 65.1122 107.88 63.608 107.342C59.5765 105.917 55.0546 104.916 50.8286 104.102C47.6574 103.478 43.6054 102.439 40.3617 102.842C34.7074 103.55 33.2778 109.216 33.3922 114.089C33.4949 118.551 34.1532 123.011 35.3062 127.308C35.3851 127.565 35.4427 127.837 35.5217 128.094L35.5395 128.098Z" fill="#FCA261"/>
<path d="M37.3761 92.9059C31.3968 82.1951 39.5049 70.4282 36.4258 58.6155C34.27 50.2926 29.0329 43.3334 21.7356 38.8494C3.84547 27.8203 -23.3929 20.3784 -44.1865 24.761C-47.8176 25.5332 -46.8899 30.9753 -43.7079 31.6387C-23.0335 35.949 4.90806 34.6457 20.8306 51.2533C35.0965 66.1224 15.5075 84.9782 30.5478 98.9218C34.5559 102.628 39.8115 97.2694 37.3761 92.9059Z" fill="#FCA261"/>
<path d="M46.7421 95.1581C44.8914 92.6195 42.3549 90.745 39.2014 90.1245C36.2261 89.5389 32.8513 90.2315 30.3157 91.9255C27.9046 93.5511 25.7388 96.5631 25.2896 99.504C24.8405 102.538 25.2042 105.862 27.0692 108.422C28.9199 110.961 31.4565 112.835 34.6099 113.456C37.5852 114.041 40.9601 113.349 43.4957 111.655C45.9068 110.029 48.0725 107.017 48.5218 104.076C48.9708 101.042 48.6071 97.7182 46.7421 95.1581Z" fill="#FCA261"/>
<path d="M46.7412 95.1579C45.2085 93.0722 43.2317 91.4565 40.8292 90.5934C41.354 91.1242 41.8504 91.7051 42.3041 92.3147C44.1726 94.8569 44.5362 98.1808 44.0837 101.233C43.638 104.156 41.4687 107.186 39.0576 108.811C36.5399 110.509 33.1472 111.198 30.1719 110.612C29.6018 110.5 29.06 110.338 28.5431 110.143C30.1995 111.789 32.2216 112.986 34.5912 113.452C37.5665 114.037 40.9413 113.345 43.4769 111.651C45.888 110.025 48.0538 107.013 48.503 104.072C48.952 101.038 48.5883 97.7145 46.7234 95.1544L46.7412 95.1579Z" fill="#E0823E"/>
<path d="M60.6991 127.956C63.0395 126.596 65.6156 125.449 66.6245 122.767C67.7787 119.723 67.9735 116.1 68.5077 112.915C68.6063 112.414 68.6728 111.889 68.547 111.399C68.4571 111.01 68.2068 110.589 67.8747 110.207C65.7016 109.966 63.41 112.488 62.4561 114.326C60.7965 117.494 59.7577 121.174 56.999 123.437C55.385 124.773 53.3636 125.454 51.4958 126.387C49.6281 127.32 47.779 128.629 47.0782 130.591C46.7845 131.425 46.6976 132.338 46.4038 133.172C45.6217 135.36 43.4556 136.68 41.5317 137.993C41.041 138.324 40.561 138.694 40.1131 139.089C41.7908 140.72 44.3955 141.214 46.5224 139.904C47.3866 139.368 47.9331 138.472 48.6188 137.715C49.5851 136.66 50.8904 135.858 52.2751 135.498C54.482 134.91 55.8727 135.649 56.7363 133.235C57.5928 130.858 58.2733 129.375 60.6777 127.971L60.6991 127.956Z" fill="#E0823E"/>
<path d="M630.623 86.3555L628.83 118.508C628.83 118.508 670.404 160.495 717.566 141.174C764.728 121.853 766.159 94.8337 766.159 94.8337L747.784 66.5183L630.623 86.3555Z" fill="#370F3E"/>
<path d="M717.566 141.174C723.384 138.788 728.5 136.301 733 133.748C718.402 132.697 703.604 136.42 689.185 133.898C681.239 132.52 673.767 129.303 666.423 126.092C656.076 121.584 640.704 113.652 628.878 117.699L628.83 118.508C628.83 118.508 670.404 160.495 717.566 141.174Z" fill="#4A1C52"/>
<path d="M798.817 49.2597L680.677 16.2346L576.437 76.5837L568.321 74.0945L566.723 82.2175L697.351 122.216L806.429 51.3897L808.024 43.2846L798.817 49.2597Z" fill="#370F3E"/>
<path d="M682.272 8.12952L568.321 74.0945L698.945 114.111L808.024 43.2846L682.272 8.12952Z" fill="#4A1C52"/>
<path d="M770.539 151.098C771.484 154.759 772.338 159.071 774.881 161.858C776.541 163.671 779.31 164.272 781.54 162.908C782.404 162.372 782.95 161.476 783.636 160.719C784.602 159.664 785.908 158.861 787.292 158.502C789.499 157.914 790.89 158.652 791.754 156.239C792.61 153.861 793.291 152.378 795.695 150.974C798.035 149.614 800.611 148.467 801.62 145.784C802.775 142.741 802.969 139.118 803.504 135.933C803.602 135.432 803.669 134.906 803.543 134.417C803.119 132.717 800.112 130.88 798.608 130.342C794.577 128.917 790.055 127.916 785.829 127.102C782.657 126.478 778.605 125.439 775.362 125.842C769.707 126.55 768.278 132.216 768.392 137.089C768.495 141.551 769.153 146.011 770.306 150.308C770.385 150.565 770.443 150.837 770.522 151.094L770.539 151.098Z" fill="#FCA261"/>
<path d="M772.376 115.906C766.397 105.195 774.505 93.4282 771.426 81.6155C769.27 73.2926 764.033 66.3334 756.736 61.8494C738.845 50.8203 711.607 43.3784 690.814 47.761C687.182 48.5332 688.11 53.9753 691.292 54.6387C711.966 58.949 739.908 57.6457 755.831 74.2533C770.097 89.1224 750.508 107.978 765.548 121.922C769.556 125.628 774.811 120.269 772.376 115.906Z" fill="#FCA261"/>
<path d="M781.742 118.158C779.891 115.619 777.355 113.745 774.201 113.124C771.226 112.539 767.851 113.231 765.316 114.925C762.905 116.551 760.739 119.563 760.29 122.504C759.841 125.538 760.204 128.862 762.069 131.422C763.92 133.961 766.456 135.835 769.61 136.456C772.585 137.041 775.96 136.349 778.496 134.655C780.907 133.029 783.073 130.017 783.522 127.076C783.971 124.042 783.607 120.718 781.742 118.158Z" fill="#FCA261"/>
<path d="M781.741 118.158C780.209 116.072 778.232 114.457 775.829 113.593C776.354 114.124 776.85 114.705 777.304 115.315C779.173 117.857 779.536 121.181 779.084 124.233C778.638 127.156 776.469 130.186 774.058 131.811C771.54 133.509 768.147 134.198 765.172 133.612C764.602 133.5 764.06 133.338 763.543 133.143C765.199 134.789 767.222 135.986 769.591 136.452C772.566 137.037 775.941 136.345 778.477 134.651C780.888 133.025 783.054 130.013 783.503 127.072C783.952 124.038 783.588 120.714 781.723 118.154L781.741 118.158Z" fill="#E0823E"/>
<path d="M399.623 63.3555L397.83 95.5076C397.83 95.5076 439.404 137.495 486.566 118.174C533.728 98.8534 535.159 71.8337 535.159 71.8337L516.784 43.5183L399.623 63.3555Z" fill="#370F3E"/>
<path d="M486.566 118.174C492.384 115.788 497.5 113.301 502 110.748C487.402 109.697 472.604 113.42 458.185 110.898C450.239 109.52 442.767 106.303 435.423 103.092C425.076 98.5837 409.704 90.6521 397.878 94.6994L397.83 95.5077C397.83 95.5077 439.404 137.495 486.566 118.174Z" fill="#4A1C52"/>
<path d="M567.817 26.2597L449.677 -6.76538L345.437 53.5837L337.321 51.0945L335.723 59.2175L466.351 99.2165L575.429 28.3897L577.024 20.2846L567.817 26.2597Z" fill="#370F3E"/>
<path d="M451.272 -14.8705L337.321 51.0945L467.945 91.1114L577.024 20.2846L451.272 -14.8705Z" fill="#4A1C52"/>
<path d="M541.087 118.069C542.195 117.989 543.247 118.568 544.156 119.212C545.669 120.271 547.011 121.539 548.349 122.825C550.298 124.676 552.233 126.507 554.182 128.358C554.478 128.64 554.774 128.921 554.939 129.307C555.63 130.874 553.485 133.685 552.137 134.331C549.849 135.423 548.797 133.246 547.842 131.516C547.134 130.224 541.739 118.048 541.08 118.105L541.087 118.069Z" fill="#FFF696"/>
<path d="M539.539 128.098C540.484 131.759 541.338 136.071 543.881 138.858C545.541 140.671 548.31 141.272 550.54 139.908C551.404 139.372 551.95 138.476 552.636 137.719C553.602 136.664 554.908 135.861 556.292 135.502C558.499 134.914 559.89 135.652 560.754 133.239C561.61 130.861 562.291 129.378 564.695 127.974C567.035 126.614 569.611 125.467 570.62 122.784C571.775 119.741 571.969 116.118 572.504 112.933C572.602 112.432 572.669 111.906 572.543 111.417C572.119 109.717 569.112 107.88 567.608 107.342C563.577 105.917 559.055 104.916 554.829 104.102C551.657 103.478 547.605 102.439 544.362 102.842C538.707 103.55 537.278 109.216 537.392 114.089C537.495 118.551 538.153 123.011 539.306 127.308C539.385 127.565 539.443 127.837 539.522 128.094L539.539 128.098Z" fill="#FCA261"/>
<path d="M541.376 92.9059C535.397 82.1951 543.505 70.4282 540.426 58.6155C538.27 50.2926 533.033 43.3334 525.736 38.8494C507.845 27.8203 480.607 20.3784 459.814 24.761C456.182 25.5332 457.11 30.9753 460.292 31.6387C480.966 35.949 508.908 34.6457 524.831 51.2533C539.097 66.1224 519.508 84.9782 534.548 98.9218C538.556 102.628 543.811 97.2694 541.376 92.9059Z" fill="#FCA261"/>
<path d="M550.742 95.1581C548.891 92.6195 546.355 90.745 543.201 90.1245C540.226 89.5389 536.851 90.2315 534.316 91.9255C531.905 93.5511 529.739 96.5631 529.29 99.504C528.841 102.538 529.204 105.862 531.069 108.422C532.92 110.961 535.456 112.835 538.61 113.456C541.585 114.041 544.96 113.349 547.496 111.655C549.907 110.029 552.073 107.017 552.522 104.076C552.971 101.042 552.607 97.7182 550.742 95.1581Z" fill="#FCA261"/>
<path d="M550.741 95.1579C549.209 93.0722 547.232 91.4565 544.829 90.5934C545.354 91.1242 545.85 91.7051 546.304 92.3147C548.173 94.8569 548.536 98.1808 548.084 101.233C547.638 104.156 545.469 107.186 543.058 108.811C540.54 110.509 537.147 111.198 534.172 110.612C533.602 110.5 533.06 110.338 532.543 110.143C534.199 111.789 536.222 112.986 538.591 113.452C541.566 114.037 544.941 113.345 547.477 111.651C549.888 110.025 552.054 107.013 552.503 104.072C552.952 101.038 552.588 97.7145 550.723 95.1544L550.741 95.1579Z" fill="#E0823E"/>
<path d="M564.699 127.956C567.04 126.596 569.616 125.449 570.625 122.767C571.779 119.723 571.974 116.1 572.508 112.915C572.606 112.414 572.673 111.889 572.547 111.399C572.457 111.01 572.207 110.589 571.875 110.207C569.702 109.966 567.41 112.488 566.456 114.326C564.796 117.494 563.758 121.174 560.999 123.437C559.385 124.773 557.364 125.454 555.496 126.387C553.628 127.32 551.779 128.629 551.078 130.591C550.785 131.425 550.698 132.338 550.404 133.172C549.622 135.36 547.456 136.68 545.532 137.993C545.041 138.324 544.561 138.694 544.113 139.089C545.791 140.72 548.395 141.214 550.522 139.904C551.387 139.368 551.933 138.472 552.619 137.715C553.585 136.66 554.89 135.858 556.275 135.498C558.482 134.91 559.873 135.649 560.736 133.235C561.593 130.858 562.273 129.375 564.678 127.971L564.699 127.956Z" fill="#E0823E"/>
</g>
<defs>
<clipPath id="clip0_135_1018">
<rect width="767" height="165" fill="white"/>
</clipPath>
</defs>
</svg>
