<svg width="456" height="157" viewBox="0 0 456 157" fill="none" xmlns="http://www.w3.org/2000/svg">
<rect width="456" height="157" fill="#370F3E"/>
<path d="M152.509 68.504L196.957 107H174.589L138.877 75.032V107H122.653V35.96H138.877V62.552L172.765 35.96H195.517L152.509 68.504ZM230.65 52.376C239.098 52.376 246.65 53.912 253.306 56.984C260.026 60.056 263.386 65.464 263.386 73.208V107H249.37L247.93 97.88C246.906 99.8 244.986 101.528 242.17 103.064C239.354 104.6 235.994 105.816 232.09 106.712C228.186 107.544 224.186 107.96 220.09 107.96C215.162 107.96 209.978 106.936 204.538 104.888C199.098 102.776 196.378 98.264 196.378 91.352C196.378 84.824 198.586 80.504 203.002 78.392C207.418 76.216 211.962 75.128 216.634 75.128C227.066 75.128 234.266 75.064 238.234 74.936C242.266 74.744 244.89 74.392 246.106 73.88C247.386 73.304 248.058 72.344 248.122 71V70.04C248.058 67.736 246.266 65.816 242.746 64.28C239.226 62.744 235.162 61.976 230.554 61.976C225.498 61.912 221.21 62.68 217.69 64.28C214.17 65.816 212.41 68.312 212.41 71.768H196.954C196.954 66.84 198.746 62.936 202.33 60.056C205.978 57.176 210.33 55.192 215.386 54.104C220.506 52.952 225.594 52.376 230.65 52.376ZM227.29 96.248C234.97 96.248 240.346 94.648 243.418 91.448C246.49 88.248 248.026 84.504 248.026 80.216C244.89 82.072 239.322 83 231.322 83C226.586 83 222.874 83.16 220.186 83.48C217.562 83.8 215.61 84.408 214.33 85.304C213.05 86.136 212.378 87.384 212.314 89.048C212.442 91.352 213.626 93.144 215.866 94.424C218.106 95.64 221.914 96.248 227.29 96.248ZM302.518 78.008L338.134 106.904H317.206L286.198 81.848V107H270.838V54.68H286.198V74.456L314.23 54.776H335.446L302.518 78.008Z" fill="white"/>
</svg>
