<svg width="708" height="157" viewBox="0 0 708 157" fill="none" xmlns="http://www.w3.org/2000/svg">
<g clip-path="url(#clip0_164_1238)">
<rect width="708" height="157" fill="#370F3E"/>
<path d="M311.477 150.744C317.962 147.483 319.986 139.709 315.998 133.381C312.01 127.052 303.52 124.565 297.035 127.826C290.55 131.086 288.526 138.86 292.514 145.189C296.502 151.517 304.992 154.004 311.477 150.744ZM306.457 138.178L282.079 99.491L277.676 101.705L302.054 140.392L306.457 138.178Z" fill="white"/>
<path d="M269.988 24.1619C262.462 23.9902 256.364 29.6699 256.368 36.848C256.372 44.026 262.477 49.9842 270.003 50.1559C277.528 50.3277 283.626 44.6479 283.622 37.4699C283.618 30.2918 277.514 24.3337 269.988 24.1619ZM267.44 37.1006L267.461 73.9711L272.571 74.0877L272.55 37.2172L267.44 37.1006Z" fill="white"/>
<path d="M202.753 95.8872L258.832 89.2976" stroke="white" stroke-width="5"/>
<path d="M327.08 66.2576C324.358 59.4015 316.453 55.5894 309.423 57.7431C302.393 59.8968 298.901 67.2008 301.623 74.0569C304.345 80.9131 312.251 84.7252 319.28 82.5715C326.31 80.4178 329.802 73.1138 327.08 66.2576ZM313.427 67.8296L284.598 76.6622L286.446 81.3175L315.276 72.485L313.427 67.8296Z" fill="white"/>
<path d="M204.238 22.2423C196.81 20.6107 189.445 24.8837 187.788 31.7861C186.132 38.6885 190.81 45.6067 198.238 47.2382C205.667 48.8697 213.032 44.5968 214.688 37.6944C216.345 30.792 211.666 23.8738 204.238 22.2423ZM198.716 34.1863L188.436 77.0166L193.48 78.1244L203.76 35.2941L198.716 34.1863Z" fill="white"/>
<path d="M142.088 138.41C147.891 143.335 156.734 143.298 161.84 138.328C166.946 133.358 166.38 125.337 160.578 120.412C154.775 115.488 145.932 115.525 140.826 120.495C135.72 125.465 136.286 133.486 142.088 138.41ZM153.303 131.083L180.662 104.451L176.722 101.107L149.363 127.74L153.303 131.083Z" fill="white"/>
<path d="M129.415 73.3801C126.469 79.8089 129.838 87.3023 136.941 90.1172C144.043 92.9321 152.189 90.0025 155.136 83.5737C158.082 77.145 154.713 69.6515 147.61 66.8367C140.508 64.0218 132.361 66.9514 129.415 73.3801ZM141.275 80.6595L169.645 91.903L171.646 87.5379L143.276 76.2944L141.275 80.6595Z" fill="white"/>
<path d="M177.335 156.25L187.427 97.542" stroke="white" stroke-width="5"/>
<path d="M235.773 146.785C232.547 140.105 224.385 136.789 217.543 139.379C210.701 141.969 207.771 149.484 210.997 156.164C214.223 162.843 222.385 166.159 229.226 163.569C236.068 160.979 238.999 153.465 235.773 146.785ZM222.289 149.206L184.553 163.491L186.744 168.027L224.48 153.742L222.289 149.206Z" fill="white"/>
<ellipse cx="17.0842" cy="17.881" rx="17.0842" ry="17.881" transform="matrix(0.347954 0.937512 -0.961784 0.273809 283.991 65.0509)" fill="url(#paint0_linear_164_1238)"/>
<ellipse cx="17.6" cy="17.3916" rx="17.6" ry="17.3916" transform="matrix(0.420144 -0.863457 0.957139 0.401117 161.453 100.721)" fill="url(#paint1_linear_164_1238)"/>
<path d="M108.235 148.005L160.015 169.098" stroke="white" stroke-width="5"/>
<path d="M13.2619 133.241C12.5525 140.344 18.0761 146.745 25.5993 147.536C33.1225 148.328 39.7963 143.212 40.5057 136.109C41.2151 129.005 35.6915 122.605 28.1683 121.813C20.6451 121.021 13.9713 126.138 13.2619 133.241ZM26.6429 137.086L80.0879 142.712L80.5696 137.888L27.1246 132.263L26.6429 137.086Z" fill="white"/>
<path d="M82.2214 202.944C89.6691 204.46 96.9454 200.066 98.4735 193.129C100.002 186.193 95.2028 179.34 87.7552 177.824C80.3075 176.308 73.0312 180.702 71.5031 187.639C69.975 194.575 74.7737 201.428 82.2214 202.944ZM87.5168 190.899L95.5641 154.368L90.5072 153.339L82.4598 189.869L87.5168 190.899Z" fill="white"/>
<path d="M60.1447 81.2278C53.5674 84.3295 51.3234 92.0492 55.1327 98.4702C58.9419 104.891 67.3619 107.582 73.9393 104.48C80.5166 101.379 82.7606 93.6589 78.9513 87.2379C75.142 80.817 66.722 78.1262 60.1447 81.2278ZM64.809 93.9071L87.2031 131.655L91.6691 129.549L69.275 91.801L64.809 93.9071Z" fill="white"/>
<ellipse cx="17.3582" cy="17.6245" rx="17.3582" ry="17.6245" transform="matrix(-0.791963 -0.664409 0.68907 -0.678916 175.014 192.736)" fill="url(#paint2_linear_164_1238)"/>
<ellipse cx="18.1909" cy="16.7946" rx="18.1909" ry="16.7946" transform="matrix(0.99071 -0.182677 0.241372 0.961715 74.6084 129.868)" fill="url(#paint3_linear_164_1238)"/>
<path d="M654.01 125.302C646.483 125.116 640.399 130.784 640.42 137.963C640.441 145.142 646.56 151.113 654.086 151.3C661.613 151.486 667.697 145.818 667.676 138.639C667.655 131.46 661.536 125.489 654.01 125.302ZM651.493 138.238L651.602 175.346L656.712 175.473L656.603 138.364L651.493 138.238Z" fill="white"/>
<path d="M711.242 167.692C708.521 160.836 700.616 157.024 693.587 159.179C686.557 161.333 683.065 168.638 685.786 175.495C688.507 182.351 696.411 186.163 703.44 184.008C710.47 181.854 713.963 174.549 711.242 167.692ZM697.59 169.266L668.762 178.102L670.609 182.758L699.437 173.921L697.59 169.266Z" fill="white"/>
<path d="M588.195 123.23C580.771 121.577 573.428 125.838 571.795 132.747C570.162 139.656 574.857 146.597 582.281 148.25C589.706 149.903 597.048 145.642 598.681 138.733C600.314 131.824 595.62 124.883 588.195 123.23ZM582.718 135.179L572.533 178.267L577.574 179.389L587.759 136.301L582.718 135.179Z" fill="white"/>
<path d="M382.969 9.38719C388.287 4.44621 388.075 -3.59559 382.495 -8.57467C376.916 -13.5538 368.081 -13.5846 362.763 -8.64366C357.445 -3.70268 357.657 4.33912 363.237 9.3182C368.817 14.2973 377.651 14.3282 382.969 9.38719ZM374.672 -1.30569L336.745 -35.1499L333.134 -31.795L371.061 2.04922L374.672 -1.30569Z" fill="white"/>
<path d="M308.98 23.6649C316.528 24.8767 323.874 20.2592 325.386 13.3515C326.899 6.44374 322.006 -0.138387 314.458 -1.35013C306.909 -2.56186 299.564 2.05564 298.051 8.96336C296.539 15.8711 301.431 22.4532 308.98 23.6649ZM314.281 11.5688L323.483 -30.4477L318.357 -31.2705L309.156 10.746L314.281 11.5688Z" fill="white"/>
<path d="M245.737 13.5097C253.314 12.9006 259.051 6.66227 258.551 -0.423981C258.051 -7.51024 251.504 -12.761 243.927 -12.1519C236.35 -11.5428 230.613 -5.30449 231.113 1.78177C231.613 8.86802 238.16 14.1188 245.737 13.5097ZM247.404 0.472105L244.759 -37.0393L239.614 -36.6258L242.26 0.885683L247.404 0.472105Z" fill="white"/>
<path d="M373.457 27.8037C366.743 30.5018 364.35 37.9689 368.114 44.482C371.877 50.9951 380.371 54.0877 387.086 51.3896C393.8 48.6915 396.193 41.2244 392.429 34.7113C388.666 28.1983 380.172 25.1056 373.457 27.8037ZM377.992 40.5127L401.113 80.5281L405.673 78.6961L382.551 38.6807L377.992 40.5127Z" fill="white"/>
<path d="M408.233 156.334C415.774 156.904 422.316 151.616 422.843 144.524C423.371 137.431 417.686 131.22 410.144 130.65C402.603 130.08 396.061 135.367 395.533 142.46C395.006 149.552 400.691 155.764 408.233 156.334ZM411.749 143.685L414.488 106.889L409.367 106.502L406.628 143.298L411.749 143.685Z" fill="white"/>
<path d="M485.354 88.7695L425.008 92.1059" stroke="white" stroke-width="5"/>
<path d="M351.342 110.95C353.729 117.935 361.474 122.276 368.641 120.646C375.808 119.016 379.683 112.032 377.296 105.047C374.909 98.0623 367.164 93.7212 359.997 95.3513C352.83 96.9814 348.955 103.965 351.342 110.95ZM365.13 110.37L396.562 103.221L394.942 98.4782L363.509 105.627L365.13 110.37Z" fill="white"/>
<path d="M478.343 161.912C485.752 163.864 493.571 160.06 495.807 153.414C498.043 146.768 493.849 139.797 486.44 137.844C479.031 135.891 471.212 139.696 468.976 146.342C466.74 152.988 470.934 159.959 478.343 161.912ZM484.907 150.541L499.087 108.393L494.056 107.067L479.876 149.215L484.907 150.541Z" fill="white"/>
<path d="M552.733 50.2811C547.021 45.1335 537.92 44.5435 532.405 48.9632C526.889 53.3829 527.048 61.1387 532.759 66.2863C538.471 71.4338 547.572 72.0239 553.088 67.6042C558.603 63.1845 558.444 55.4287 552.733 50.2811ZM540.807 56.5361L509.612 81.5332L513.49 85.0284L544.685 60.0313L540.807 56.5361Z" fill="white"/>
<path d="M561.394 115.227C564.902 109.186 562.016 101.786 554.949 98.6989C547.883 95.6118 539.31 98.0065 535.803 104.048C532.296 110.089 535.181 117.488 542.248 120.576C549.315 123.663 557.887 121.268 561.394 115.227ZM549.789 107.586L520.352 94.7269L517.971 98.8287L547.408 111.688L549.789 107.586Z" fill="white"/>
<path d="M517.004 29.999L501.837 88.0038" stroke="white" stroke-width="5"/>
<path d="M482.875 -52.6704C476.153 -49.9869 473.74 -42.5248 477.485 -36.0034C481.23 -29.4819 489.715 -26.3707 496.438 -29.0542C503.16 -31.7377 505.573 -39.1998 501.828 -45.7213C498.082 -52.2427 489.597 -55.3539 482.875 -52.6704ZM487.374 -39.9513L512.785 4.29564L517.349 2.47353L491.938 -41.7734L487.374 -39.9513Z" fill="white"/>
<path d="M454.801 35.8129C457.736 42.6473 465.8 46.5273 472.813 44.4792C479.826 42.4311 483.131 35.2304 480.196 28.3961C477.26 21.5617 469.196 17.6817 462.183 19.7298C455.171 21.7779 451.865 28.9786 454.801 35.8129ZM468.495 34.4247L509.842 22.349L507.848 17.7085L466.502 29.7842L468.495 34.4247Z" fill="white"/>
<path d="M562.129 -41.1363C555.253 -44.6489 546.476 -42.8239 542.524 -37.0602C538.571 -31.2965 540.941 -23.7766 547.816 -20.2641C554.692 -16.7515 563.47 -18.5765 567.422 -24.3402C571.374 -30.1039 569.004 -37.6238 562.129 -41.1363ZM552.638 -31.8927L527.759 4.38969L532.427 6.77469L557.307 -29.5077L552.638 -31.8927Z" fill="white"/>
<ellipse cx="17.1187" cy="19.122" rx="17.1187" ry="19.122" transform="matrix(-0.300556 -0.953764 0.979063 -0.203555 396.341 114.849)" fill="url(#paint4_linear_164_1238)"/>
<ellipse cx="18.2204" cy="18.1129" rx="18.2204" ry="18.1129" transform="matrix(-0.495611 0.808895 -0.952025 -0.437443 529.795 86.3315)" fill="url(#paint5_linear_164_1238)"/>
<path d="M590.137 42.219L536.453 18.1772" stroke="white" stroke-width="5"/>
<path d="M689.583 62.314C690.853 55.368 685.786 48.8003 678.265 47.6445C670.744 46.4887 663.617 51.1825 662.347 58.1284C661.076 65.0743 666.143 71.6421 673.664 72.7979C681.185 73.9537 688.312 69.2599 689.583 62.314ZM676.396 57.8631L619.776 49.1618L618.913 53.8781L675.534 62.5793L676.396 57.8631Z" fill="white"/>
<path d="M621.936 -10.8505C614.505 -12.6935 606.774 -8.76102 604.668 -2.06716C602.562 4.6267 606.878 11.5471 614.308 13.3901C621.739 15.233 629.47 11.3006 631.576 4.60671C633.682 -2.08715 629.366 -9.0076 621.936 -10.8505ZM615.599 0.6441L604.275 36.6344L609.32 37.8858L620.645 1.89545L615.599 0.6441Z" fill="white"/>
<path d="M636.436 111.585C643.228 109.042 645.841 101.631 642.271 95.0312C638.702 88.4319 630.302 85.1437 623.51 87.6869C616.717 90.23 614.105 97.6414 617.674 104.241C621.243 110.84 629.643 114.128 636.436 111.585ZM632.279 98.7726L611.204 59.8084L606.592 61.5352L627.667 100.499L632.279 98.7726Z" fill="white"/>
<ellipse cx="17.7083" cy="18.5966" rx="17.7083" ry="18.5966" transform="matrix(0.779775 0.694781 -0.745186 0.604377 522.215 -6.27954)" fill="url(#paint6_linear_164_1238)"/>
<ellipse cx="19.4425" cy="16.8422" rx="19.4425" ry="16.8422" transform="matrix(-1.00211 0.117015 -0.185069 -0.970927 624.668 62.2607)" fill="url(#paint7_linear_164_1238)"/>
<path d="M22.7329 5.28137C17.0214 0.133783 7.92009 -0.456285 2.40456 3.96341C-3.11098 8.38311 -2.95214 16.1389 2.75933 21.2865C8.4708 26.4341 17.5721 27.0242 23.0876 22.6045C28.6032 18.1848 28.4443 10.4289 22.7329 5.28137ZM10.8071 11.5363L-20.388 36.5335L-16.5099 40.0287L14.6851 15.0315L10.8071 11.5363Z" fill="white"/>
<path d="M31.3942 70.2271C34.9017 64.186 32.0162 56.7862 24.9494 53.6991C17.8826 50.6121 9.31048 53.0067 5.80304 59.0478C2.29559 65.0889 5.18103 72.4887 12.2478 75.5758C19.3147 78.6628 27.8868 76.2682 31.3942 70.2271ZM19.7894 62.5865L-9.64786 49.7271L-12.0294 53.829L17.4079 66.6884L19.7894 62.5865Z" fill="white"/>
<path d="M159.583 17.3142C160.853 10.3683 155.786 3.80056 148.265 2.64476C140.744 1.48896 133.617 6.18277 132.347 13.1287C131.076 20.0746 136.143 26.6423 143.664 27.7981C151.185 28.9539 158.312 24.2601 159.583 17.3142ZM146.396 12.8633L89.7757 4.16209L88.9131 8.87835L145.534 17.5796L146.396 12.8633Z" fill="white"/>
<path d="M106.436 66.5854C113.228 64.0422 115.841 56.6308 112.271 50.0315C108.702 43.4321 100.302 40.144 93.5098 42.6871C86.7175 45.2302 84.1047 52.6417 87.674 59.241C91.2434 65.8403 99.6432 69.1285 106.436 66.5854ZM102.279 53.7728L81.2043 14.8087L76.5923 16.5354L97.6667 55.4996L102.279 53.7728Z" fill="white"/>
<ellipse cx="19.4425" cy="16.8422" rx="19.4425" ry="16.8422" transform="matrix(-1.00211 0.117015 -0.185069 -0.970927 94.668 17.261)" fill="url(#paint8_linear_164_1238)"/>
<path d="M269.875 161.33C263.153 164.013 260.74 171.475 264.485 177.997C268.23 184.518 276.715 187.629 283.438 184.946C290.16 182.262 292.573 174.8 288.828 168.279C285.082 161.757 276.597 158.646 269.875 161.33ZM274.374 174.049L299.785 218.296L304.349 216.474L278.938 172.227L274.374 174.049Z" fill="white"/>
</g>
<defs>
<linearGradient id="paint0_linear_164_1238" x1="17.0842" y1="0" x2="17.0842" y2="35.762" gradientUnits="userSpaceOnUse">
<stop stop-color="#FFAA5A"/>
<stop offset="1" stop-color="#E56399"/>
</linearGradient>
<linearGradient id="paint1_linear_164_1238" x1="17.6" y1="0" x2="17.6" y2="34.7831" gradientUnits="userSpaceOnUse">
<stop stop-color="#FFAA5A"/>
<stop offset="1" stop-color="#E56399"/>
</linearGradient>
<linearGradient id="paint2_linear_164_1238" x1="17.3582" y1="0" x2="17.3582" y2="35.249" gradientUnits="userSpaceOnUse">
<stop stop-color="#FFAA5A"/>
<stop offset="1" stop-color="#E56399"/>
</linearGradient>
<linearGradient id="paint3_linear_164_1238" x1="18.1909" y1="0" x2="18.1909" y2="33.5891" gradientUnits="userSpaceOnUse">
<stop stop-color="#FFAA5A"/>
<stop offset="1" stop-color="#E56399"/>
</linearGradient>
<linearGradient id="paint4_linear_164_1238" x1="17.1187" y1="0" x2="17.1187" y2="38.244" gradientUnits="userSpaceOnUse">
<stop stop-color="#004385"/>
<stop offset="1" stop-color="#6699CC"/>
</linearGradient>
<linearGradient id="paint5_linear_164_1238" x1="18.2204" y1="0" x2="18.2204" y2="36.2259" gradientUnits="userSpaceOnUse">
<stop stop-color="#004385"/>
<stop offset="1" stop-color="#6699CC"/>
</linearGradient>
<linearGradient id="paint6_linear_164_1238" x1="17.7083" y1="0" x2="17.7083" y2="37.1932" gradientUnits="userSpaceOnUse">
<stop stop-color="#004385"/>
<stop offset="1" stop-color="#6699CC"/>
</linearGradient>
<linearGradient id="paint7_linear_164_1238" x1="19.4425" y1="0" x2="19.4425" y2="33.6845" gradientUnits="userSpaceOnUse">
<stop stop-color="#004385"/>
<stop offset="1" stop-color="#6699CC"/>
</linearGradient>
<linearGradient id="paint8_linear_164_1238" x1="19.4425" y1="0" x2="19.4425" y2="33.6845" gradientUnits="userSpaceOnUse">
<stop stop-color="#004385"/>
<stop offset="1" stop-color="#6699CC"/>
</linearGradient>
<clipPath id="clip0_164_1238">
<rect width="708" height="157" fill="white"/>
</clipPath>
</defs>
</svg>
