<svg width="714" height="157" viewBox="0 0 714 157" fill="none" xmlns="http://www.w3.org/2000/svg">
<rect width="714" height="157" fill="white"/>
<path d="M82.5696 77.984C82.5696 72.608 84.1056 67.776 87.1776 63.488C90.2496 59.136 94.4416 55.744 99.7536 53.312C105.066 50.88 110.954 49.664 117.418 49.664C126.762 49.664 134.122 51.68 139.498 55.712C144.938 59.68 148.714 65.12 150.826 72.032H135.37C134.538 68.704 132.49 65.888 129.226 63.584C126.026 61.216 122.186 60.032 117.706 60.032C111.626 60.096 106.858 61.792 103.402 65.12C99.9456 68.448 98.2176 72.736 98.2176 77.984C98.2176 80.992 98.9216 83.904 100.33 86.72C101.802 89.472 104.01 91.712 106.954 93.44C109.898 95.168 113.482 96 117.706 95.936C122.25 95.936 126.122 94.784 129.322 92.48C132.522 90.112 134.506 87.296 135.274 84.032H150.73C150.154 87.872 148.298 91.52 145.162 94.976C142.026 98.368 137.994 101.12 133.066 103.232C128.202 105.28 122.986 106.304 117.418 106.304C111.146 106.304 105.354 105.088 100.042 102.656C94.7296 100.16 90.4736 96.768 87.2736 92.48C84.1376 88.128 82.5696 83.296 82.5696 77.984ZM190.837 49.472C197.301 49.472 203.125 50.688 208.309 53.12C213.557 55.552 217.653 58.944 220.597 63.296C223.541 67.584 225.013 72.416 225.013 77.792C225.013 83.104 223.541 87.936 220.597 92.288C217.653 96.576 213.557 99.936 208.309 102.368C203.125 104.8 197.301 106.016 190.837 106.016C184.629 106.016 178.805 104.8 173.365 102.368C167.925 99.872 163.573 96.48 160.309 92.192C157.045 87.84 155.413 83.04 155.413 77.792C155.413 72.48 157.045 67.68 160.309 63.392C163.573 59.04 167.893 55.648 173.269 53.216C178.709 50.72 184.565 49.472 190.837 49.472ZM190.933 95.648C196.181 95.648 200.629 94.176 204.277 91.232C207.925 88.288 209.749 83.808 209.749 77.792C209.749 71.776 207.925 67.296 204.277 64.352C200.629 61.344 196.181 59.84 190.933 59.84C187.605 59.84 184.405 60.48 181.333 61.76C178.325 63.04 175.829 65.024 173.845 67.712C171.925 70.4 170.965 73.76 170.965 77.792C170.965 81.824 171.925 85.184 173.845 87.872C175.829 90.56 178.325 92.544 181.333 93.824C184.405 95.04 187.605 95.648 190.933 95.648ZM296.479 86.816C296.415 93.344 293.375 98.176 287.359 101.312C281.407 104.384 273.503 105.92 263.647 105.92C256.543 105.92 250.431 104.96 245.311 103.04C240.191 101.056 236.287 98.368 233.599 94.976C230.975 91.584 229.663 87.808 229.663 83.648H244.927C244.927 87.36 246.719 90.112 250.303 91.904C253.951 93.696 258.399 94.656 263.647 94.784C268.447 94.848 272.543 94.24 275.935 92.96C279.327 91.68 281.023 89.6 281.023 86.72C281.023 85.376 280.703 84.384 280.063 83.744C279.487 83.104 278.207 82.624 276.223 82.304C274.239 81.984 271.135 81.824 266.911 81.824H255.199V72.416H266.911C271.391 72.416 274.719 72.032 276.895 71.264C279.071 70.496 280.159 69.152 280.159 67.232C280.159 65.184 278.559 63.68 275.359 62.72C272.159 61.76 268.255 61.28 263.647 61.28C258.399 61.216 253.951 61.76 250.303 62.912C246.719 64 244.927 65.792 244.927 68.288H229.663C229.663 61.504 233.215 56.832 240.319 54.272C247.423 51.712 255.199 50.432 263.647 50.432C271.967 50.432 279.295 51.52 285.631 53.696C291.967 55.872 295.135 60.192 295.135 66.656C295.135 71.456 293.087 74.784 288.991 76.64C293.983 78.496 296.479 81.856 296.479 86.72V86.816ZM379.053 92.288H388.557V113.216H373.293V104.096L316.461 104V113.216H301.101V92.288H307.341C310.349 88.32 312.525 84.672 313.869 81.344C315.277 78.016 316.205 74.208 316.653 69.92C317.101 65.568 317.325 59.488 317.325 51.68H378.957L379.053 92.288ZM331.821 62.816C331.693 70.112 331.149 75.84 330.189 80C329.229 84.16 327.373 88.256 324.621 92.288H363.693V62.912L331.821 62.816ZM427.915 49.376C436.363 49.376 443.915 50.912 450.571 53.984C457.291 57.056 460.651 62.464 460.651 70.208V104H446.635L445.195 94.88C444.171 96.8 442.251 98.528 439.435 100.064C436.619 101.6 433.259 102.816 429.355 103.712C425.451 104.544 421.451 104.96 417.355 104.96C412.427 104.96 407.243 103.936 401.803 101.888C396.363 99.776 393.643 95.264 393.643 88.352C393.643 81.824 395.851 77.504 400.267 75.392C404.683 73.216 409.227 72.128 413.899 72.128C424.331 72.128 431.531 72.064 435.499 71.936C439.531 71.744 442.155 71.392 443.371 70.88C444.651 70.304 445.323 69.344 445.387 68V67.04C445.323 64.736 443.531 62.816 440.011 61.28C436.491 59.744 432.427 58.976 427.819 58.976C422.763 58.912 418.475 59.68 414.955 61.28C411.435 62.816 409.675 65.312 409.675 68.768H394.219C394.219 63.84 396.011 59.936 399.595 57.056C403.243 54.176 407.595 52.192 412.651 51.104C417.771 49.952 422.859 49.376 427.915 49.376ZM424.555 93.248C432.235 93.248 437.611 91.648 440.683 88.448C443.755 85.248 445.291 81.504 445.291 77.216C442.155 79.072 436.587 80 428.587 80C423.851 80 420.139 80.16 417.451 80.48C414.827 80.8 412.875 81.408 411.595 82.304C410.315 83.136 409.643 84.384 409.579 86.048C409.707 88.352 410.891 90.144 413.131 91.424C415.371 92.64 419.179 93.248 424.555 93.248ZM523.015 49.472C529.479 49.472 535.271 50.688 540.391 53.12C545.575 55.552 549.607 58.944 552.487 63.296C555.431 67.584 556.903 72.416 556.903 77.792C556.903 83.104 555.431 87.936 552.487 92.288C549.607 96.576 545.575 99.936 540.391 102.368C535.271 104.8 529.479 106.016 523.015 106.016C517.447 106.016 512.167 105.024 507.175 103.04C502.247 100.992 498.087 98.208 494.695 94.688C491.367 91.104 489.255 87.04 488.359 82.496H483.463V104H468.103V51.584H483.463V70.592H489.031C490.311 66.496 492.615 62.848 495.943 59.648C499.335 56.448 503.367 53.952 508.039 52.16C512.775 50.368 517.767 49.472 523.015 49.472ZM523.015 95.84C526.407 95.84 529.511 95.136 532.327 93.728C535.207 92.32 537.479 90.272 539.143 87.584C540.807 84.832 541.639 81.568 541.639 77.792C541.639 72.16 539.911 67.776 536.455 64.64C532.999 61.504 528.519 59.936 523.015 59.936C519.815 59.936 516.679 60.64 513.607 62.048C510.599 63.456 508.135 65.504 506.215 68.192C504.295 70.88 503.335 74.08 503.335 77.792C503.335 81.504 504.263 84.736 506.119 87.488C507.975 90.176 510.407 92.256 513.415 93.728C516.423 95.136 519.623 95.84 523.015 95.84ZM629.218 51.68V64.256H603.874V104H588.514V64.256H562.882V51.68H629.218Z" fill="#370F3E"/>
</svg>
