<svg width="772" height="158" viewBox="0 0 772 158" fill="none" xmlns="http://www.w3.org/2000/svg">
<g clip-path="url(#clip0_161_1156)">
<rect width="772" height="158" fill="white"/>
<path d="M245.41 150.05C245.41 150.05 165.277 123.696 157.861 145.178C150.446 166.66 190.6 211.226 290.268 223.357C389.936 235.488 439.29 176.878 416.519 164.11C393.749 151.358 302.283 180.066 245.41 150.034V150.05Z" fill="#4A1C52"/>
<path d="M416.52 164.126C393.75 151.374 302.284 180.082 245.41 150.05C245.41 150.05 214.892 140.028 189.761 137.38C183.343 141.647 177.991 149.036 181.734 161.657C189.359 187.308 271.538 211.341 323.55 207.76C365.121 204.899 377.03 205.635 376.348 214.741C415.838 199.651 431.193 172.349 416.502 164.126H416.52Z" fill="#370F3E"/>
<path d="M228.865 154.628C228.865 154.628 227.169 171.663 278.48 179.412C329.792 187.162 346.546 172.481 346.546 172.481C346.546 172.481 334.164 111.631 330.299 102.264C326.417 92.896 345.69 85.0487 347.876 72.82C350.062 60.5913 337.82 37.1965 339.813 30.886C341.79 24.5755 369.177 28.3683 364.595 24.2649C360.013 20.1614 331.576 11.513 318.075 14.6846C304.556 17.8726 322.045 49.0165 315.014 54.7222C308.001 60.4442 270.75 70.9563 268.599 74.275C266.448 77.5938 268.687 99.2392 261.761 108.525C254.836 117.811 232.835 141.991 228.882 154.612L228.865 154.628Z" fill="#370F3E"/>
<path d="M325.718 69.681C328.831 59.0054 322.867 27.8451 326.173 24.0359C329.041 20.7335 347.334 24.3138 352.388 18.9352C341.668 15.5347 326.767 12.6573 318.058 14.7172C304.539 17.8889 322.028 49.0492 314.997 54.7548C307.984 60.4768 270.734 70.9889 268.582 74.3076C266.431 77.6264 268.67 99.2718 261.744 108.558C256.813 115.179 244.256 129.337 236.001 141.484C242.699 145.309 252.161 149.364 252.161 149.364C255.623 148.71 283.693 136.22 285.896 119.675C288.1 103.114 282.766 92.5199 289.132 86.9614C295.498 81.4029 322.605 80.3566 325.718 69.681Z" fill="#4A1C52"/>
<path d="M241.353 131.854C241.353 131.854 251.042 146.764 285.494 151.293C319.93 155.821 341.738 146.666 341.738 146.666C341.738 146.666 348.874 170.372 347.772 172.333C346.67 174.295 337.331 188.012 285.022 181.93C232.714 175.832 227.327 157.783 227.519 154.17C227.729 150.557 241.335 131.854 241.335 131.854H241.353Z" fill="#E0823E"/>
<path d="M317.307 151.931C308.615 152.781 297.877 152.944 285.478 151.31C251.043 146.781 241.336 131.871 241.336 131.871C241.336 131.871 233.676 142.383 229.759 149.168C239.045 158.519 253.036 166.841 273.813 168.181C304.401 170.159 314.282 160.17 317.307 151.931Z" fill="#FCA261"/>
<path d="M322.395 147.794C320.542 146.061 290.409 147.549 290.409 147.549C287.645 147.451 286.981 148.89 286.701 151.015C286.421 153.157 287.226 183.614 291.091 186.001C294.938 188.404 322.675 187.505 324.861 184.938C327.065 182.372 324.249 149.511 322.395 147.778V147.794ZM296.11 180.377C294.728 174.851 293.854 160.481 293.784 154.072C300.115 153.811 310.713 153.467 316.677 153.696C317.726 160.187 318.775 173.625 318.565 179.887C313.266 180.639 302.441 181.096 296.127 180.361L296.11 180.377Z" fill="#502A58"/>
<path d="M317.813 163.816C318.321 169.718 318.67 176.11 318.53 179.887C313.231 180.639 302.406 181.097 296.092 180.361C295.865 179.462 295.655 178.301 295.463 177.009C293.259 177.418 290.898 177.663 288.38 177.745C289.044 181.996 289.919 185.265 291.073 185.985C294.921 188.388 322.658 187.489 324.844 184.922C326.523 182.96 325.281 163.342 323.76 153.418C322.483 156.574 320.594 160.252 317.796 163.8L317.813 163.816Z" fill="#370F3E"/>
<path d="M51.4098 50.0502C51.4098 50.0502 -28.7234 23.6963 -36.1386 45.1783C-43.5539 66.6603 -3.39982 111.226 96.2683 123.357C195.936 135.488 245.29 76.8781 222.519 64.1099C199.749 51.3581 108.283 80.0661 51.4098 50.0338V50.0502Z" fill="#4A1C52"/>
<path d="M222.52 64.1261C199.75 51.3742 108.284 80.0823 51.4103 50.05C51.4103 50.05 20.8925 40.0283 -4.23878 37.3799C-10.6571 41.6469 -16.0087 49.0364 -12.2661 61.6575C-4.64101 87.3083 77.5384 111.341 129.55 107.76C171.121 104.899 183.03 105.635 182.348 114.741C221.838 99.6514 237.193 72.3494 222.502 64.1261H222.52Z" fill="#370F3E"/>
<path d="M34.8649 54.628C34.8649 54.628 33.1685 71.6632 84.4804 79.4124C135.792 87.1616 152.546 72.4807 152.546 72.4807C152.546 72.4807 140.164 11.6314 136.299 2.2637C132.417 -7.10401 151.69 -14.9513 153.876 -27.18C156.062 -39.4087 143.82 -62.8035 145.813 -69.114C147.79 -75.4245 175.177 -71.6317 170.595 -75.7351C166.013 -79.8386 137.576 -88.487 124.075 -85.3154C110.556 -82.1274 128.045 -50.9835 121.014 -45.2778C114.001 -39.5558 76.7504 -29.0437 74.5993 -25.725C72.4482 -22.4062 74.6867 -0.760773 67.7612 8.52519C60.8356 17.8112 38.8349 41.9906 34.8824 54.6117L34.8649 54.628Z" fill="#370F3E"/>
<path d="M131.718 -30.319C134.831 -40.9946 128.867 -72.1549 132.173 -75.9641C135.041 -79.2665 153.334 -75.6862 158.388 -81.0648C147.668 -84.4653 132.767 -87.3427 124.058 -85.2828C110.539 -82.1111 128.028 -50.9508 120.997 -45.2452C113.984 -39.5232 76.7336 -29.0111 74.5824 -25.6924C72.4313 -22.3736 74.6699 -0.728153 67.7444 8.55781C62.8125 15.179 50.2556 29.3368 42.001 41.4838C48.6992 45.3093 58.1606 49.3638 58.1606 49.3638C61.6233 48.7098 89.6927 36.2195 91.8963 19.6748C94.0998 3.11376 88.7658 -7.4801 95.1317 -13.0386C101.498 -18.5971 128.605 -19.6434 131.718 -30.319Z" fill="#4A1C52"/>
<path d="M47.353 31.8545C47.353 31.8545 57.0417 46.7644 91.4945 51.2929C125.93 55.8214 147.738 46.6663 147.738 46.6663C147.738 46.6663 154.874 70.3716 153.772 72.3335C152.67 74.2953 143.331 88.0117 91.0223 81.9301C38.7136 75.8321 33.3271 57.7833 33.5194 54.1702C33.7293 50.5572 47.3355 31.8545 47.3355 31.8545H47.353Z" fill="#E0823E"/>
<path d="M123.307 51.9307C114.615 52.7809 103.877 52.9444 91.4778 51.3095C57.0425 46.781 47.3363 31.8711 47.3363 31.8711C47.3363 31.8711 39.6763 42.3832 35.7588 49.1678C45.0453 58.5192 59.0363 66.8406 79.8128 68.1812C110.401 70.1594 120.282 60.1704 123.307 51.9307Z" fill="#FCA261"/>
<path d="M128.395 47.7944C126.542 46.0615 96.4085 47.5492 96.4085 47.5492C93.6453 47.4511 92.9807 48.8898 92.7009 51.0151C92.4211 53.1567 93.2256 83.6141 97.0906 86.001C100.938 88.4042 128.675 87.505 130.861 84.9383C133.065 82.3716 130.249 49.511 128.395 47.7781V47.7944ZM102.11 80.3771C100.728 74.8513 99.8538 60.4809 99.7838 54.0723C106.115 53.8107 116.713 53.4674 122.677 53.6963C123.726 60.1866 124.775 73.6251 124.565 79.8866C119.266 80.6386 108.441 81.0964 102.127 80.3607L102.11 80.3771Z" fill="#502A58"/>
<path d="M123.813 63.8161C124.321 69.7179 124.67 76.1102 124.53 79.8867C119.231 80.6388 108.406 81.0965 102.092 80.3608C101.865 79.4617 101.655 78.3009 101.463 77.0094C99.2593 77.4181 96.8983 77.6633 94.3799 77.7451C95.0445 81.9957 95.9189 85.2654 97.0732 85.9847C100.921 88.388 128.658 87.4888 130.844 84.9221C132.523 82.9602 131.281 63.342 129.76 53.4185C128.483 56.5737 126.594 60.2521 123.796 63.7998L123.813 63.8161Z" fill="#370F3E"/>
<path d="M454.41 80.0502C454.41 80.0502 374.277 53.6963 366.861 75.1783C359.446 96.6603 399.6 141.226 499.268 153.357C598.936 165.488 648.29 106.878 625.519 94.1099C602.749 81.3581 511.283 110.066 454.41 80.0338V80.0502Z" fill="#4A1C52"/>
<path d="M625.52 94.1262C602.75 81.3744 511.284 110.082 454.41 80.0501C454.41 80.0501 423.892 70.0285 398.761 67.38C392.343 71.647 386.991 79.0365 390.734 91.6576C398.359 117.308 480.538 141.341 532.55 137.76C574.121 134.899 586.03 135.635 585.348 144.741C624.838 129.652 640.193 102.35 625.502 94.1262H625.52Z" fill="#370F3E"/>
<path d="M437.865 84.628C437.865 84.628 436.169 101.663 487.48 109.412C538.792 117.162 555.546 102.481 555.546 102.481C555.546 102.481 543.164 41.6314 539.299 32.2637C535.417 22.896 554.69 15.0487 556.876 2.82C559.062 -9.4087 546.82 -32.8035 548.813 -39.114C550.79 -45.4245 578.177 -41.6317 573.595 -45.7351C569.013 -49.8386 540.576 -58.487 527.075 -55.3154C513.556 -52.1274 531.045 -20.9835 524.014 -15.2778C517.001 -9.55584 479.75 0.956265 477.599 4.27502C475.448 7.59377 477.687 29.2392 470.761 38.5252C463.836 47.8112 441.835 71.9906 437.882 84.6117L437.865 84.628Z" fill="#370F3E"/>
<path d="M534.718 -0.318997C537.831 -10.9946 531.867 -42.1549 535.173 -45.9641C538.041 -49.2665 556.334 -45.6862 561.388 -51.0648C550.668 -54.4653 535.767 -57.3427 527.058 -55.2828C513.539 -52.1111 531.028 -20.9508 523.997 -15.2452C516.984 -9.52322 479.734 0.988888 477.582 4.30764C475.431 7.62639 477.67 29.2718 470.744 38.5578C465.813 45.179 453.256 59.3368 445.001 71.4838C451.699 75.3093 461.161 79.3638 461.161 79.3638C464.623 78.7098 492.693 66.2195 494.896 49.6748C497.1 33.1138 491.766 22.5199 498.132 16.9614C504.498 11.4029 531.605 10.3566 534.718 -0.318997Z" fill="#4A1C52"/>
<path d="M450.353 61.8545C450.353 61.8545 460.042 76.7644 494.494 81.2929C528.93 85.8214 550.738 76.6663 550.738 76.6663C550.738 76.6663 557.874 100.372 556.772 102.333C555.67 104.295 546.331 118.012 494.022 111.93C441.714 105.832 436.327 87.7833 436.519 84.1702C436.729 80.5572 450.335 61.8545 450.335 61.8545H450.353Z" fill="#E0823E"/>
<path d="M526.307 81.9306C517.615 82.7807 506.877 82.9442 494.478 81.3094C460.043 76.7808 450.336 61.871 450.336 61.871C450.336 61.871 442.676 72.3831 438.759 79.1677C448.045 88.5191 462.036 96.8405 482.813 98.1811C513.401 100.159 523.282 90.1703 526.307 81.9306Z" fill="#FCA261"/>
<path d="M531.395 77.7946C529.542 76.0616 499.409 77.5493 499.409 77.5493C496.645 77.4512 495.981 78.8899 495.701 81.0152C495.421 83.1569 496.226 113.614 500.091 116.001C503.938 118.404 531.675 117.505 533.861 114.938C536.065 112.372 533.249 79.5112 531.395 77.7782V77.7946ZM505.11 110.377C503.728 104.851 502.854 90.481 502.784 84.0724C509.115 83.8108 519.713 83.4675 525.677 83.6964C526.726 90.1867 527.775 103.625 527.565 109.887C522.266 110.639 511.441 111.097 505.127 110.361L505.11 110.377Z" fill="#502A58"/>
<path d="M526.813 93.8161C527.321 99.7179 527.67 106.11 527.53 109.887C522.231 110.639 511.406 111.097 505.092 110.361C504.865 109.462 504.655 108.301 504.463 107.009C502.259 107.418 499.898 107.663 497.38 107.745C498.044 111.996 498.919 115.265 500.073 115.985C503.921 118.388 531.658 117.489 533.844 114.922C535.523 112.96 534.281 93.342 532.76 83.4185C531.483 86.5737 529.594 90.2521 526.796 93.7998L526.813 93.8161Z" fill="#370F3E"/>
<path d="M696.41 32.0502C696.41 32.0502 616.277 5.69633 608.861 27.1783C601.446 48.6603 641.6 93.2264 741.268 105.357C840.936 117.488 890.29 58.8781 867.519 46.1099C844.749 33.3581 753.283 62.0661 696.41 32.0338V32.0502Z" fill="#4A1C52"/>
<path d="M867.52 46.1262C844.75 33.3744 753.284 62.0824 696.41 32.0501C696.41 32.0501 665.892 22.0285 640.761 19.38C634.343 23.647 628.991 31.0365 632.734 43.6576C640.359 69.3084 722.538 93.3408 774.55 89.7605C816.121 86.8995 828.03 87.6351 827.348 96.7413C866.838 81.6516 882.193 54.3495 867.502 46.1262H867.52Z" fill="#370F3E"/>
<path d="M679.865 36.628C679.865 36.628 678.169 53.6632 729.48 61.4124C780.792 69.1616 797.546 54.4807 797.546 54.4807C797.546 54.4807 785.164 -6.36859 781.299 -15.7363C777.417 -25.104 796.69 -32.9513 798.876 -45.18C801.062 -57.4087 788.82 -80.8035 790.813 -87.114C792.79 -93.4245 820.177 -89.6317 815.595 -93.7351C811.013 -97.8386 782.576 -106.487 769.075 -103.315C755.556 -100.127 773.045 -68.9835 766.014 -63.2778C759.001 -57.5558 721.75 -47.0437 719.599 -43.725C717.448 -40.4062 719.687 -18.7608 712.761 -9.47481C705.836 -0.18884 683.835 23.9906 679.882 36.6117L679.865 36.628Z" fill="#370F3E"/>
<path d="M776.718 -48.319C779.831 -58.9946 773.867 -90.1549 777.173 -93.9641C780.041 -97.2665 798.334 -93.6862 803.388 -99.0648C792.668 -102.465 777.767 -105.343 769.058 -103.283C755.539 -100.111 773.028 -68.9508 765.997 -63.2452C758.984 -57.5232 721.734 -47.0111 719.582 -43.6924C717.431 -40.3736 719.67 -18.7282 712.744 -9.44219C707.813 -2.82103 695.256 11.3368 687.001 23.4838C693.699 27.3093 703.161 31.3638 703.161 31.3638C706.623 30.7098 734.693 18.2195 736.896 1.67483C739.1 -14.8862 733.766 -25.4801 740.132 -31.0386C746.498 -36.5971 773.605 -37.6434 776.718 -48.319Z" fill="#4A1C52"/>
<path d="M692.353 13.8545C692.353 13.8545 702.042 28.7644 736.494 33.2929C770.93 37.8214 792.738 28.6663 792.738 28.6663C792.738 28.6663 799.874 52.3716 798.772 54.3335C797.67 56.2953 788.331 70.0117 736.022 63.9301C683.714 57.8321 678.327 39.7833 678.519 36.1702C678.729 32.5572 692.335 13.8545 692.335 13.8545H692.353Z" fill="#E0823E"/>
<path d="M768.307 33.9306C759.615 34.7807 748.877 34.9442 736.478 33.3094C702.043 28.7808 692.336 13.871 692.336 13.871C692.336 13.871 684.676 24.3831 680.759 31.1677C690.045 40.5191 704.036 48.8405 724.813 50.1811C755.401 52.1592 765.282 42.1703 768.307 33.9306Z" fill="#FCA261"/>
<path d="M773.395 29.7946C771.542 28.0616 741.409 29.5493 741.409 29.5493C738.645 29.4512 737.981 30.8899 737.701 33.0152C737.421 35.1569 738.226 65.6142 742.091 68.0011C745.938 70.4043 773.675 69.5051 775.861 66.9384C778.065 64.3717 775.249 31.5112 773.395 29.7782V29.7946ZM747.11 62.3772C745.728 56.8514 744.854 42.481 744.784 36.0724C751.115 35.8108 761.713 35.4675 767.677 35.6964C768.726 42.1867 769.775 55.6252 769.565 61.8867C764.266 62.6388 753.441 63.0965 747.127 62.3608L747.11 62.3772Z" fill="#502A58"/>
<path d="M768.813 45.8161C769.321 51.7179 769.67 58.1102 769.53 61.8867C764.231 62.6388 753.406 63.0965 747.092 62.3608C746.865 61.4617 746.655 60.3009 746.463 59.0094C744.259 59.4181 741.898 59.6633 739.38 59.7451C740.044 63.9957 740.919 67.2654 742.073 67.9847C745.921 70.388 773.658 69.4888 775.844 66.9221C777.523 64.9602 776.281 45.342 774.76 35.4185C773.483 38.5737 771.594 42.2521 768.796 45.7998L768.813 45.8161Z" fill="#370F3E"/>
<path d="M598.865 259.628C598.865 259.628 597.169 276.663 648.48 284.412C699.792 292.162 716.546 277.481 716.546 277.481C716.546 277.481 704.164 216.631 700.299 207.264C696.417 197.896 715.69 190.049 717.876 177.82C720.062 165.591 707.82 142.197 709.813 135.886C711.79 129.575 739.177 133.368 734.595 129.265C730.013 125.161 701.576 116.513 688.075 119.685C674.556 122.873 692.045 154.017 685.014 159.722C678.001 165.444 640.75 175.956 638.599 179.275C636.448 182.594 638.687 204.239 631.761 213.525C624.836 222.811 602.835 246.991 598.882 259.612L598.865 259.628Z" fill="#370F3E"/>
<path d="M695.718 174.681C698.831 164.005 692.867 132.845 696.173 129.036C699.041 125.733 717.334 129.314 722.388 123.935C711.668 120.535 696.767 117.657 688.058 119.717C674.539 122.889 692.028 154.049 684.997 159.755C677.984 165.477 640.734 175.989 638.582 179.308C636.431 182.626 638.67 204.272 631.744 213.558C626.813 220.179 614.256 234.337 606.001 246.484C612.699 250.309 622.161 254.364 622.161 254.364C625.623 253.71 653.693 241.22 655.896 224.675C658.1 208.114 652.766 197.52 659.132 191.961C665.498 186.403 692.605 185.357 695.718 174.681Z" fill="#4A1C52"/>
</g>
<defs>
<clipPath id="clip0_161_1156">
<rect width="772" height="158" fill="white"/>
</clipPath>
</defs>
</svg>
